HIERARCHY
ROOT Hips
{
    OFFSET 0.000000 0.000000 0.000000
    CHANNELS 6 Xposition Yposition Zposition Zrotation Xrotation Yrotation
    JOINT Spine
    {
        OFFSET 0.000001 7.292995 0.000000
        CHANNELS 3 Zrotation Xrotation Yrotation
        JOINT Spine1
        {
            OFFSET -0.000000 20.255388 0.000001
            CHANNELS 3 Zrotation Xrotation Yrotation
            JOINT Neck
            {
                OFFSET 0.000001 20.786594 0.000000
                CHANNELS 3 Zrotation Xrotation Yrotation
                JOINT Head
                {
                    OFFSET 0.000003 12.530788 1.776080
                    CHANNELS 3 Zrotation Xrotation Yrotation
                    End Site
                    {
                        OFFSET 0.000000 17.760757 0.000000
                    }
                }
            }
            JOINT LeftShoulder
            {
                OFFSET 3.550532 15.465697 -0.908801
                CHANNELS 3 Zrotation Xrotation Yrotation
                JOINT LeftArm
                {
                    OFFSET 12.513301 -0.000005 0.000001
                    CHANNELS 3 Zrotation Xrotation Yrotation
                    JOINT LeftForeArm
                    {
                        OFFSET 24.225992 0.000005 0.000000
                        CHANNELS 3 Zrotation Xrotation Yrotation
                        JOINT LeftHand
                        {
                            OFFSET 20.711395 -0.000004 0.000000
                            CHANNELS 3 Zrotation Xrotation Yrotation
                            JOINT LeftHandThumb1
                            {
                                OFFSET 2.121964 -2.411326 3.375861
                                CHANNELS 3 Zrotation Xrotation Yrotation
                                JOINT LeftHandThumb2
                                {
                                    OFFSET 2.803212 -0.000001 -0.000002
                                    CHANNELS 3 Zrotation Xrotation Yrotation
                                    JOINT LeftHandThumb3
                                    {
                                        OFFSET 2.395929 0.000000 0.000000
                                        CHANNELS 3 Zrotation Xrotation Yrotation
                                        End Site
                                        {
                                            OFFSET 2.127676 0.000000 0.000000
                                        }
                                    }
                                }
                            }
                            JOINT LeftHandIndex1
                            {
                                OFFSET 8.680776 0.000004 3.375861
                                CHANNELS 3 Zrotation Xrotation Yrotation
                                JOINT LeftHandIndex2
                                {
                                    OFFSET 4.218180 -0.000002 0.000001
                                    CHANNELS 3 Zrotation Xrotation Yrotation
                                    JOINT LeftHandIndex3
                                    {
                                        OFFSET 2.109090 0.000001 -0.000000
                                        CHANNELS 3 Zrotation Xrotation Yrotation
                                        End Site
                                        {
                                            OFFSET 1.872952 0.000000 0.000000
                                        }
                                    }
                                }
                            }
                            JOINT LeftHandMiddle1
                            {
                                OFFSET 8.680775 0.000001 1.118862
                                CHANNELS 3 Zrotation Xrotation Yrotation
                                JOINT LeftHandMiddle2
                                {
                                    OFFSET 4.640000 0.000002 -0.000000
                                    CHANNELS 3 Zrotation Xrotation Yrotation
                                    JOINT LeftHandMiddle3
                                    {
                                        OFFSET 2.530906 0.000005 0.000000
                                        CHANNELS 3 Zrotation Xrotation Yrotation
                                        End Site
                                        {
                                            OFFSET 2.247544 0.000000 0.000000
                                        }
                                    }
                                }
                            }
                            JOINT LeftHandRing1
                            {
                                OFFSET 8.198514 -0.000004 -1.118859
                                CHANNELS 3 Zrotation Xrotation Yrotation
                                JOINT LeftHandRing2
                                {
                                    OFFSET 4.218182 -0.000003 -0.000001
                                    CHANNELS 3 Zrotation Xrotation Yrotation
                                    JOINT LeftHandRing3
                                    {
                                        OFFSET 2.109086 0.000004 0.000001
                                        CHANNELS 3 Zrotation Xrotation Yrotation
                                        End Site
                                        {
                                            OFFSET 1.872952 0.000000 0.000000
                                        }
                                    }
                                }
                            }
                            JOINT LeftHandPinky1
                            {
                                OFFSET 7.716242 0.000005 -3.375859
                                CHANNELS 3 Zrotation Xrotation Yrotation
                                JOINT LeftHandPinky2
                                {
                                    OFFSET 3.374535 0.000004 0.000002
                                    CHANNELS 3 Zrotation Xrotation Yrotation
                                    JOINT LeftHandPinky3
                                    {
                                        OFFSET 1.687275 0.000002 -0.000001
                                        CHANNELS 3 Zrotation Xrotation Yrotation
                                        End Site
                                        {
                                            OFFSET 1.498360 0.000000 0.000000
                                        }
                                    }
                                }
                            }
                        }
                    }
                }
            }
            JOINT RightShoulder
            {
                OFFSET -3.550531 15.465694 -0.908802
                CHANNELS 3 Zrotation Xrotation Yrotation
                JOINT RightArm
                {
                    OFFSET -12.513298 -0.000004 0.000001
                    CHANNELS 3 Zrotation Xrotation Yrotation
                    JOINT RightForeArm
                    {
                        OFFSET -24.225996 -0.000002 -0.000000
                        CHANNELS 3 Zrotation Xrotation Yrotation
                        JOINT RightHand
                        {
                            OFFSET -20.711401 0.000005 0.000001
                            CHANNELS 3 Zrotation Xrotation Yrotation
                            JOINT RightHandThumb1
                            {
                                OFFSET -2.121970 -2.411334 3.375861
                                CHANNELS 3 Zrotation Xrotation Yrotation
                                JOINT RightHandThumb2
                                {
                                    OFFSET -2.803210 0.000003 -0.000004
                                    CHANNELS 3 Zrotation Xrotation Yrotation
                                    JOINT RightHandThumb3
                                    {
                                        OFFSET -2.395930 -0.000001 0.000002
                                        CHANNELS 3 Zrotation Xrotation Yrotation
                                        End Site
                                        {
                                            OFFSET -2.127676 0.000000 0.000000
                                        }
                                    }
                                }
                            }
                            JOINT RightHandIndex1
                            {
                                OFFSET -8.680779 0.000001 3.375860
                                CHANNELS 3 Zrotation Xrotation Yrotation
                                JOINT RightHandIndex2
                                {
                                    OFFSET -4.218180 0.000000 -0.000000
                                    CHANNELS 3 Zrotation Xrotation Yrotation
                                    JOINT RightHandIndex3
                                    {
                                        OFFSET -2.109090 0.000001 -0.000000
                                        CHANNELS 3 Zrotation Xrotation Yrotation
                                        End Site
                                        {
                                            OFFSET -1.872952 0.000000 0.000000
                                        }
                                    }
                                }
                            }
                            JOINT RightHandMiddle1
                            {
                                OFFSET -8.680780 0.000001 1.118860
                                CHANNELS 3 Zrotation Xrotation Yrotation
                                JOINT RightHandMiddle2
                                {
                                    OFFSET -4.640000 -0.000002 0.000001
                                    CHANNELS 3 Zrotation Xrotation Yrotation
                                    JOINT RightHandMiddle3
                                    {
                                        OFFSET -2.530910 0.000001 -0.000000
                                        CHANNELS 3 Zrotation Xrotation Yrotation
                                        End Site
                                        {
                                            OFFSET -2.247544 0.000000 0.000000
                                        }
                                    }
                                }
                            }
                            JOINT RightHandRing1
                            {
                                OFFSET -8.198519 0.000005 -1.118860
                                CHANNELS 3 Zrotation Xrotation Yrotation
                                JOINT RightHandRing2
                                {
                                    OFFSET -4.218180 -0.000006 0.000000
                                    CHANNELS 3 Zrotation Xrotation Yrotation
                                    JOINT RightHandRing3
                                    {
                                        OFFSET -2.109090 0.000001 -0.000000
                                        CHANNELS 3 Zrotation Xrotation Yrotation
                                        End Site
                                        {
                                            OFFSET -1.872952 0.000000 0.000000
                                        }
                                    }
                                }
                            }
                            JOINT RightHandPinky1
                            {
                                OFFSET -7.716248 -0.000002 -3.375859
                                CHANNELS 3 Zrotation Xrotation Yrotation
                                JOINT RightHandPinky2
                                {
                                    OFFSET -3.374540 0.000000 0.000000
                                    CHANNELS 3 Zrotation Xrotation Yrotation
                                    JOINT RightHandPinky3
                                    {
                                        OFFSET -1.687270 0.000004 0.000001
                                        CHANNELS 3 Zrotation Xrotation Yrotation
                                        End Site
                                        {
                                            OFFSET -1.498360 0.000000 0.000000
                                        }
                                    }
                                }
                            }
                        }
                    }
                }
            }
        }
    }
    JOINT LeftUpLeg
    {
        OFFSET 8.880376 -0.000000 -0.000000
        CHANNELS 3 Zrotation Xrotation Yrotation
        JOINT LeftLeg
        {
            OFFSET -0.000001 -40.387405 -0.000001
            CHANNELS 3 Zrotation Xrotation Yrotation
            JOINT LeftFoot
            {
                OFFSET -0.000001 -36.911297 -0.000001
                CHANNELS 3 Zrotation Xrotation Yrotation
                JOINT LeftToeBase
                {
                    OFFSET -0.000002 -5.772240 13.320604
                    CHANNELS 3 Zrotation Xrotation Yrotation
                    End Site
                    {
                        OFFSET 0.000000 0.000000 3.552151
                    }
                }
            }
        }
    }
    JOINT RightUpLeg
    {
        OFFSET -8.880376 0.000000 0.000000
        CHANNELS 3 Zrotation Xrotation Yrotation
        JOINT RightLeg
        {
            OFFSET -0.000001 -40.387390 0.000000
            CHANNELS 3 Zrotation Xrotation Yrotation
            JOINT RightFoot
            {
                OFFSET 0.000002 -36.911297 -0.000001
                CHANNELS 3 Zrotation Xrotation Yrotation
                JOINT RightToeBase
                {
                    OFFSET 0.000001 -5.772238 13.320600
                    CHANNELS 3 Zrotation Xrotation Yrotation
                    End Site
                    {
                        OFFSET 0.000000 0.000000 3.552151
                    }
                }
            }
        }
    }
}
MOTION
Frames: 5
Frame Time: 0.013889
61.570942    81.831970    12.996219    -13.055614    8.414254    8.945705    1.681778    -13.610855    7.111873    -4.714489    13.626536    7.836286    -4.255535    -21.969997    -16.899734    5.502056    7.228025    -17.113306    0.634577    5.171492    -8.385645    -10.385140    50.654255    -29.734707    -9.744301    -2.690433    -74.712433    -4.093433    46.634998    -16.084194    15.176212    44.945328    -35.583183    -13.453126    -0.665929    23.308495    -0.000000    0.000000    -0.000000    6.022319    17.906979    -33.962639    5.729579    0.000003    -0.000000    5.729578    -0.000000    -0.000000    5.800514    8.954671    -16.958260    5.729578    0.000000    0.000003    5.729579    -0.000000    -0.000003    5.800516    -8.954676    -2.298266    5.729579    0.000003    -0.000004    5.729581    0.000004    0.000006    6.022322    -17.906973    -4.550415    5.729581    0.000007    -0.000006    5.729578    -0.000006    0.000008    -2.765316    -1.723423    14.808115    41.635265    26.622561    59.615299    -30.251455    -9.782972    106.243134    -63.021992    12.929870    22.135290    -33.651569    32.425243    44.684841    13.821817    -0.824742    -23.303688    -0.000000    0.000000    -0.000000    -6.022318    17.906975    -0.710095    -5.729573    -0.000005    -0.000006    -5.729578    -0.000000    0.000000    -5.800510    8.954670    -0.378107    -5.729578    -0.000002    -0.000005    -5.729586    0.000000    0.000001    -5.800525    -8.954673    2.355858    -5.729568    -0.000006    -0.000008    -5.729575    -0.000001    -0.000000    -6.022321    -17.906979    4.665601    -5.729586    0.000000    -0.000008    -5.729569    -0.000004    -0.000000    10.653337    -26.442747    -4.041609    0.000000    37.281551    -0.000001    5.511225    -14.829835    1.457091    0.000000    3.417146    0.000000    10.779457    -42.303387    -1.531877    -0.000001    62.604115    0.000000    4.698512    16.005753    -11.023121    -0.000001    1.379316    -0.000000    
61.607224    81.703568    12.983274    -13.098744    8.310173    8.850406    1.729762    -13.513247    7.364005    -4.945757    13.652469    8.134516    -4.715461    -21.732555    -17.145870    5.456680    7.284631    -17.185936    0.517175    5.095869    -8.545057    -10.826902    50.251835    -29.299597    -10.558030    -2.895249    -74.837280    -4.935461    46.597950    -15.347884    14.970175    45.085224    -35.558411    -13.418642    -0.651068    23.308889    -0.000000    0.000000    -0.000000    6.022324    17.906973    -35.651699    5.729578    -0.000003    -0.000001    5.729578    0.000003    -0.000000    5.800515    8.954668    -17.802797    5.729581    -0.000003    -0.000000    5.729577    -0.000000    -0.000001    5.800509    -8.954668    -2.520193    5.729578    -0.000003    0.000002    5.729578    0.000000    0.000003    6.022313    -17.906973    -4.994263    5.729584    0.000004    0.000004    5.729577    -0.000007    0.000004    -3.015028    -1.770035    14.751231    41.466187    27.028427    59.863773    -30.302422    -9.363622    105.557213    -62.892136    12.824659    22.268499    -33.557858    32.486702    44.757591    13.904510    -0.860358    -23.302488    -0.000000    0.000000    -0.000000    -6.022332    17.906973    -0.766383    -5.729555    -0.000000    0.000002    -5.729581    -0.000000    0.000000    -5.800519    8.954671    -0.406251    -5.729568    -0.000001    0.000002    -5.729575    -0.000001    -0.000000    -5.800525    -8.954675    2.228779    -5.729571    0.000003    -0.000001    -5.729575    -0.000004    0.000001    -6.022326    -17.906973    4.411439    -5.729568    0.000003    -0.000002    -5.729575    0.000001    0.000000    10.766058    -26.627110    -3.645975    -0.000000    37.899448    0.000000    5.774188    -15.124832    1.348055    0.000001    3.468532    -0.000000    11.139730    -42.360806    -1.122922    -0.000001    62.884090    0.000000    4.394289    15.924834    -11.407317    -0.000000    1.215682    0.000000    
61.653183    81.613091    12.964815    -13.111842    8.272311    8.819667    1.766399    -13.491976    7.529823    -5.104455    13.685512    8.332103    -5.069540    -21.540140    -17.312849    5.419724    7.353201    -17.220356    0.455770    5.082271    -8.649545    -10.864390    50.015713    -29.258764    -10.994882    -2.990819    -74.967949    -5.469490    46.912399    -14.714900    14.442772    45.499416    -35.671589    -13.585435    -0.722925    23.306889    -0.000000    0.000000    -0.000000    6.022322    17.906977    -37.046432    5.729577    0.000000    -0.000000    5.729580    0.000003    -0.000001    5.800510    8.954666    -18.500158    5.729579    0.000003    -0.000001    5.729579    0.000000    0.000001    5.800516    -8.954668    -2.752650    5.729578    -0.000003    0.000002    5.729578    -0.000007    -0.000001    6.022322    -17.906981    -5.459177    5.729581    0.000004    0.000002    5.729580    0.000000    0.000003    -3.226432    -1.769833    14.813928    41.353134    27.209877    59.983978    -30.300573    -9.071022    105.098595    -62.914150    12.681031    22.407223    -33.494514    32.530018    44.795330    13.963034    -0.885562    -23.301586    -0.000000    0.000000    -0.000000    -6.022314    17.906973    -0.777867    -5.729594    -0.000005    0.000000    -5.729570    0.000000    0.000001    -5.800521    8.954675    -0.411990    -5.729569    -0.000006    0.000003    -5.729583    0.000001    0.000001    -5.800515    -8.954671    2.156540    -5.729586    -0.000004    0.000002    -5.729582    0.000001    -0.000001    -6.022325    -17.906977    4.266961    -5.729584    -0.000006    0.000001    -5.729582    0.000006    0.000000    10.772525    -26.790972    -3.470735    -0.000000    38.306602    0.000000    6.043014    -15.321745    1.339499    -0.000000    3.455500    -0.000001    11.223202    -42.426544    -1.051653    -0.000002    63.061401    0.000002    4.133824    15.879227    -11.521459    0.000000    1.049431    0.000001    
61.698181    81.511887    12.945593    -13.128053    8.253582    8.801067    1.805130    -13.467841    7.706441    -5.275321    13.727228    8.543670    -5.393651    -21.423908    -17.519081    5.418984    7.396383    -17.315378    0.377368    5.046000    -8.775159    -10.843975    49.786659    -29.235228    -11.415606    -3.077178    -75.112099    -5.880922    47.239479    -14.315897    14.097098    45.885365    -36.092461    -13.695395    -0.770292    23.305458    -0.000000    0.000000    -0.000000    6.022316    17.906973    -38.389061    5.729579    0.000007    0.000000    5.729578    0.000000    0.000000    5.800514    8.954670    -19.171476    5.729579    -0.000003    0.000002    5.729578    0.000003    -0.000001    5.800513    -8.954670    -3.004930    5.729577    0.000000    0.000002    5.729578    -0.000004    -0.000002    6.022318    -17.906973    -5.963735    5.729580    -0.000003    -0.000000    5.729578    -0.000000    -0.000003    -3.501003    -1.790600    14.789113    41.285122    27.454613    60.127151    -30.289045    -8.830342    104.725182    -62.834305    12.723829    22.434174    -33.411560    32.590721    44.816525    14.028113    -0.913589    -23.300568    -0.000000    0.000000    -0.000000    -6.022324    17.906975    -0.760135    -5.729582    -0.000001    0.000001    -5.729578    0.000000    -0.000000    -5.800517    8.954671    -0.403126    -5.729586    -0.000002    -0.000000    -5.729578    0.000001    0.000001    -5.800519    -8.954670    2.092560    -5.729576    0.000003    -0.000002    -5.729586    -0.000004    0.000007    -6.022321    -17.906979    4.139003    -5.729583    0.000001    0.000001    -5.729576    0.000001    0.000004    10.746380    -26.994186    -3.402480    0.000000    38.759853    0.000000    6.289046    -15.522351    1.420643    -0.000001    3.424387    -0.000000    11.258216    -42.508442    -1.058656    0.000001    63.253002    -0.000000    3.874346    15.798523    -11.599159    0.000000    0.884157    -0.000000    
61.783104    81.368835    12.891806    -13.189442    8.215751    8.824643    1.890938    -13.385437    8.116403    -5.432836    13.797124    8.975807    -5.893831    -21.304859    -17.966837    5.402196    7.419716    -17.598200    0.300603    5.010137    -9.243282    -10.650292    49.461033    -29.473988    -11.940992    -3.202199    -75.203957    -6.715956    47.612667    -13.650165    13.569109    46.451641    -36.611378    -13.866763    -0.844102    23.303049    -0.000000    0.000000    -0.000000    6.022316    17.906973    -40.155548    5.729578    -0.000003    0.000001    5.729579    0.000003    -0.000000    5.800514    8.954671    -20.054722    5.729577    0.000003    -0.000000    5.729579    -0.000003    0.000001    5.800514    -8.954667    -3.387418    5.729578    0.000000    0.000001    5.729578    0.000003    0.000002    6.022319    -17.906981    -6.728722    5.729580    0.000003    -0.000002    5.729579    0.000003    -0.000002    -3.826450    -1.858887    14.317893    41.173710    27.825489    60.251884    -30.268906    -8.552867    104.296104    -62.720486    12.679282    22.458023    -33.314114    32.664894    44.820450    14.107962    -0.947968    -23.299269    -0.000000    0.000000    -0.000000    -6.022313    17.906973    -0.700570    -5.729586    -0.000002    0.000000    -5.729572    -0.000000    0.000001    -5.800511    8.954671    -0.373342    -5.729573    0.000001    -0.000001    -5.729586    -0.000004    0.000002    -5.800519    -8.954671    2.013829    -5.729583    0.000001    0.000000    -5.729572    -0.000005    -0.000000    -6.022316    -17.906977    3.981544    -5.729586    0.000003    0.000001    -5.729571    -0.000002    -0.000004    10.663086    -27.311199    -3.507522    -0.000001    39.412109    0.000002    6.556644    -15.818590    1.639005    -0.000001    3.385142    -0.000000    11.181362    -42.649654    -1.308098    -0.000000    63.541893    -0.000001    3.625434    15.702703    -11.635377    0.000000    0.698853    -0.000000    
